<svg height="512pt" viewBox="-6 0 512 512.001" width="512pt" xmlns="http://www.w3.org/2000/svg"><path d="m468 0h-297.238281c-17.414063 0-31.582031 14.171875-31.582031 31.589844v94.691406h-9.878907c-3.085937 0-6.125-.5-9.035156-1.476562l-7.226563-2.4375c-2.054687-.6875-3.921874-1.867188-5.402343-3.417969-.023438-.023438-.042969-.050781-.066407-.074219-2.378906-2.519531-3.691406-5.808594-3.691406-9.285156v-13.71875l4.308594-2.625c7.648438-4.660156 12.398438-13.125 12.398438-22.089844v-22.652344c0-.027344 0-.054687 0-.078125v-19.765625c0-15.804687-12.839844-28.660156-28.628907-28.660156h-26.152343c-15.785157 0-28.628907 12.855469-28.628907 28.660156v17.042969.019531 25.433594c0 8.964844 4.75 17.429688 12.398438 22.089844l4.304687 2.625v13.71875c0 3.742187-1.570312 7.351562-4.304687 9.898437-1.398438 1.296875-3.03125 2.269531-4.855469 2.882813l-12.78125 4.300781c-19.101562 6.433594-31.9375 24.316406-31.9375 44.5v103.066406c0 18.171875 12.953125 33.371094 30.109375 36.859375v31.902344c0 4.140625 3.359375 7.5 7.5 7.5 4.144531 0 7.5-3.359375 7.5-7.5v-61.5h65.367187v189.375h-25.183593v-158.875c0-4.140625-3.355469-7.5-7.5-7.5-4.140625 0-7.5 3.359375-7.5 7.5v158.875h-25.183594v-98.207031c0-4.144531-3.355469-7.5-7.5-7.5-4.140625 0-7.5 3.355469-7.5 7.5v105.707031c0 2.726562 1.460937 5.109375 3.640625 6.421875-2.308594 4.03125-3.640625 8.699219-3.640625 13.671875v4.226562c0 5.132813 4.175781 9.304688 9.304687 9.304688h36.574219c.617188 0 1.21875-.0625 1.804688-.179688.585937.117188 1.1875.179688 1.804687.179688h36.574219c5.128906 0 9.304687-4.171875 9.304687-9.304688v-4.226562c0-4.972656-1.328124-9.640625-3.640624-13.671875 2.179687-1.3125 3.640624-3.691406 3.640624-6.421875v-204.296875c0-.027344.003907-.050781.003907-.078125v-95.570312c0-1.433594 1.160156-2.601563 2.589843-2.601563h84.949219c20.992188 0 38.070313-17.070313 38.070313-38.058594v-3c0-4.679687-3.804688-8.488281-8.476563-8.488281h-13.625l10.730469-10.035156c2.832031 1.398437 6.003906 2.207031 9.375 2.207031 5.332031 0 10.195312-1.988281 13.929688-5.246094l19.730468 10.597657c-.121094.914062-.207031 1.839843-.207031 2.785156 0 11.710937 9.53125 21.238281 21.242187 21.238281 11.710938 0 21.238282-9.527344 21.238282-21.238281 0-3.871094-1.058594-7.496094-2.875-10.625l17.558594-21.511719c2.121093.714844 4.382812 1.117187 6.746093 1.117187 2.914063 0 5.691407-.589843 8.21875-1.65625l14.324219 15.121094c-1.363281 2.800782-2.148438 5.933594-2.148438 9.25 0 11.710938 9.527344 21.238282 21.242188 21.238282 11.710938 0 21.238281-9.527344 21.238281-21.238282 0-3.921875-1.085937-7.585937-2.945312-10.742187l26.878906-33.324219c2.125.714844 4.390625 1.121094 6.753906 1.121094 11.710938 0 21.238281-9.527344 21.238281-21.242188 0-11.710937-9.527343-21.238281-21.238281-21.238281-11.714843 0-21.242187 9.527344-21.242187 21.238281 0 3.875 1.058594 7.496094 2.875 10.625l-26.9375 33.394532c-2.085938-.6875-4.308594-1.070313-6.625-1.070313-2.914063 0-5.691406.589844-8.21875 1.65625l-14.324219-15.125c1.359375-2.800781 2.148437-5.929687 2.148437-9.246094 0-11.710937-9.53125-21.238281-21.242187-21.238281s-21.238281 9.527344-21.238281 21.238281c0 3.875 1.058594 7.5 2.878906 10.632813l-17.554688 21.503906c-2.125-.714844-4.390624-1.117188-6.75-1.117188-5.332031 0-10.195312 1.988282-13.929687 5.242188l-19.730469-10.597656c.117188-.910156.203125-1.835938.203125-2.78125 0-11.710938-9.527343-21.238282-21.242187-21.238282-11.710938 0-21.238282 9.527344-21.238282 21.238282 0 2.863281.578126 5.59375 1.609376 8.085937l-22.429688 20.980469h-52.851562v-94.691406c0-9.148438 7.4375-16.589844 16.578124-16.589844h297.242188c9.148438 0 16.589844 7.441406 16.589844 16.589844v248.671875c0 9.144531-7.441406 16.589843-16.589844 16.589843h-297.242188c-9.140624 0-16.578124-7.445312-16.578124-16.589843v-81.246094c0-4.144531-3.355469-7.5-7.5-7.5-4.144532 0-7.5 3.355469-7.5 7.5v81.246094c0 17.417969 14.167968 31.589843 31.578124 31.589843h35.105469c-2.527343 4.269532-3.984375 9.246094-3.984375 14.558594v17.042969.019531 25.433594c0 8.964844 4.753906 17.429688 12.402344 22.089844l4.308594 2.628906v13.714844c0 3.746094-1.570313 7.351562-4.308594 9.898437-1.398438 1.300781-3.03125 2.269531-4.851562 2.882813l-12.78125 4.300781c-19.105469 6.433594-31.9375 24.316406-31.9375 44.5v35.578125c0 4.144531 3.355468 7.5 7.5 7.5 4.140624 0 7.5-3.355469 7.5-7.5v-35.578125c0-13.738281 8.726562-25.910156 21.71875-30.28125l12.785156-4.300781c2.367187-.800782 4.585937-1.886719 6.636718-3.246094 3.996094 1.199219 8.0625 2.058594 12.179688 2.5625l-13.128906 46.414062c-.699219 2.472657-.085938 5.132813 1.632812 7.046876l15.644532 17.445312c1.378906 1.535156 3.328124 2.4375 5.394531 2.488281.0625 0 .125.003907.1875.003907 1.996093 0 3.914062-.796876 5.324219-2.21875l17.300781-17.445313c1.957031-1.972656 2.664062-4.867187 1.835937-7.519531l-14.53125-46.449219c4.285156-.625 8.511719-1.632813 12.648438-3.011719 2.328125 1.683594 4.90625 3.015625 7.628906 3.929688l12.777344 4.296875c12.992187 4.378906 21.722656 16.546875 21.722656 30.285156v35.578125c0 4.140625 3.359375 7.5 7.5 7.5 4.144531 0 7.5-3.359375 7.5-7.5v-35.578125c0-6.734375 2.074219-13.183594 6-18.652344 2.414062-3.363281 1.644531-8.050781-1.71875-10.464843-3.367188-2.414063-8.050781-1.644532-10.46875 1.71875-.453125.632812-.886719 1.28125-1.308594 1.929687-5.625-8.722656-14.113281-15.554687-24.441406-19.03125l-12.792969-4.304687c-2.078125-.695313-3.898437-1.847657-5.40625-3.429688-2.414062-2.523438-3.742187-5.84375-3.742187-9.347656v-13.71875l4.308594-2.625h-.003907c7.648438-4.660156 12.398438-13.125 12.398438-22.089844v-22.65625c0-.023438 0-.050781 0-.074219v-19.765625c0-5.3125-1.457031-10.289062-3.984375-14.5625h67.320312c-2.527344 4.273438-3.984375 9.25-3.984375 14.5625v17.042969.019531 25.433594c0 8.964844 4.753907 17.429688 12.398438 22.089844l4.304687 2.625v13.71875c0 3.742187-1.566406 7.355468-4.292968 9.898437-1.394532 1.292969-3.03125 2.265625-4.867188 2.882813l-6.816406 2.296875c-3.925782 1.320312-6.035156 5.574219-4.714844 9.5 1.054688 3.132812 3.976562 5.109375 7.105469 5.109375.796875 0 1.601562-.128906 2.398437-.394532l6.8125-2.296874c2.375-.796876 4.59375-1.886719 6.644532-3.242188 3.996093 1.199219 8.0625 2.058594 12.179687 2.5625l-13.132813 46.410156c-.699218 2.476563-.082031 5.136719 1.632813 7.050782l15.648437 17.445312c1.378907 1.535156 3.328126 2.4375 5.394532 2.488281.0625 0 .125.003907.1875.003907 1.996094 0 3.914062-.796876 5.324218-2.21875l17.300782-17.445313c1.957031-1.972656 2.664062-4.867187 1.832031-7.519531l-14.53125-46.449219c4.285156-.625 8.511719-1.636719 12.652344-3.011719 2.320312 1.679688 4.898437 3.011719 7.632812 3.925782l12.765625 4.300781c4.589844 1.542969 8.664063 4.039062 12.117188 7.421875 3.351562 3.277344 5.984375 7.328125 7.617187 11.714844 1.328125 3.574218 2.003907 7.324218 2.003907 11.144531v35.578125c0 4.144531 3.355468 7.5 7.5 7.5 4.140624 0 7.5-3.355469 7.5-7.5v-35.578125c0-5.613281-.992188-11.121094-2.945313-16.371094-2.394531-6.445313-6.265625-12.398437-11.183594-17.210937-5.082031-4.972657-11.074219-8.644532-17.820312-10.914063l-12.785157-4.308594c-2.058593-.6875-3.921874-1.867187-5.410156-3.433593-2.410156-2.515626-3.734375-5.832032-3.734375-9.34375v-13.722657l4.296875-2.621093c7.648438-4.660157 12.398438-13.125 12.398438-22.089844v-22.65625c0-.023438 0-.050782 0-.074219v-19.765625c0-5.3125-1.457032-10.289062-3.984375-14.558594h43.925781c17.417969 0 31.589844-14.171875 31.589844-31.589844v-248.667968c0-17.417969-14.171875-31.589844-31.589844-31.589844zm-27.980469 47.859375c3.4375 0 6.238281 2.800781 6.238281 6.242187 0 3.4375-2.800781 6.238282-6.238281 6.238282-1.496093 0-2.867187-.527344-3.941406-1.40625-.023437-.019532-.042969-.042969-.066406-.0625-.007813-.003906-.011719-.007813-.015625-.011719-1.355469-1.144531-2.214844-2.851563-2.214844-4.761719-.003906-3.4375 2.796875-6.238281 6.238281-6.238281zm-45.6875 70.425781c0 3.441406-2.800781 6.238282-6.242187 6.238282-3.4375 0-6.238282-2.796876-6.238282-6.238282s2.800782-6.238281 6.238282-6.238281c3.441406 0 6.242187 2.796875 6.242187 6.238281zm-47.878906-50.195312c3.441406 0 6.242187 2.800781 6.242187 6.238281 0 3.441406-2.800781 6.242187-6.242187 6.242187-1.484375 0-2.847656-.523437-3.921875-1.394531-.003906-.003906-.011719-.011719-.019531-.015625-.011719-.011718-.023438-.019531-.039063-.03125-1.378906-1.144531-2.257812-2.871094-2.257812-4.800781 0-3.4375 2.800781-6.238281 6.238281-6.238281zm-42.664063 52.261718c3.4375 0 6.238282 2.796876 6.238282 6.238282s-2.800782 6.238281-6.238282 6.238281c-3.441406 0-6.242187-2.796875-6.242187-6.238281 0-1.054688.265625-2.042969.730469-2.917969.003906-.011719.015625-.023437.019531-.035156.011719-.019531.019531-.039063.027344-.058594 1.066406-1.921875 3.113281-3.226563 5.464843-3.226563zm-54.699218-29.378906c3.441406 0 6.242187 2.800782 6.242187 6.242188 0 1.042968-.261719 2.027344-.714843 2.890625-.011719.019531-.023438.039062-.035157.054687-.011719.027344-.023437.050782-.035156.074219-1.0625 1.917969-3.109375 3.21875-5.457031 3.21875-1.792969 0-3.410156-.765625-4.550782-1.980469 0-.003906 0-.003906 0-.003906 0-.003906-.003906-.003906-.003906-.003906-1.042968-1.113282-1.683594-2.609375-1.683594-4.25 0-3.441406 2.800782-6.242188 6.238282-6.242188zm-170.664063 75.972656 8.753907 41.265626-8.851563 8.921874-7.851563-8.753906zm.15625-45.496093c-4 .085937-7.972656-.25-11.878906-.96875 1.414063-3.425781 2.175781-7.125 2.175781-10.890625v-4.914063c3.203125 1.351563 6.601563 2.035157 10 2.035157 3.402344 0 6.796875-.683594 10-2.035157v4.914063c0 3.570312.664063 7.046875 1.914063 10.292968-4.003907.941407-8.085938 1.476563-12.210938 1.566407zm-12.777343-106.449219h26.152343c7.515625 0 13.628907 6.128906 13.628907 13.660156v9.445313l-35.570313-11.449219c-1.910156-.613281-3.988281-.4375-5.769531.492188l-12.070313 6.300781v-4.789063c0-7.53125 6.113281-13.660156 13.628907-13.660156zm-13.628907 35.371094 16.230469-8.476563 37.179688 11.96875v17.292969c0 3.769531-1.992188 7.324219-5.203126 9.28125-.003906 0-.003906 0-.003906 0l-15.867187 9.675781c-3.472657 2.117188-7.789063 2.117188-11.261719 0l-15.867188-9.675781c-3.214843-1.957031-5.207031-5.515625-5.207031-9.285156zm-6.980469 446.628906c.730469-6.253906 6.058594-11.125 12.507813-11.125 6.445313 0 11.777344 4.871094 12.503906 11.125zm40.183594 0c.730469-6.253906 6.058594-11.125 12.503906-11.125 6.449219 0 11.78125 4.871094 12.507813 11.125zm127.640625-336.171875h-84.949219c-9.699218 0-17.589843 7.898437-17.589843 17.601563v88.070312h-65.371094v-84.378906c0-4.144532-3.355469-7.5-7.5-7.5-4.140625 0-7.5 3.355468-7.5 7.5v113.445312c-8.789063-3.101562-15.109375-11.488281-15.109375-21.328125v-103.066406c0-13.738281 8.730469-25.90625 21.722656-30.285156l12.78125-4.300781c2.371094-.796876 4.589844-1.886719 6.636719-3.242188 4.246094 1.269531 8.570313 2.152344 12.949219 2.644531l-14.042969 73.214844c-.441406 2.300781.21875 4.675781 1.78125 6.421875l15.644531 17.441406c1.378906 1.539063 3.328125 2.4375 5.394532 2.492188h.1875c1.996093 0 3.914062-.796875 5.324218-2.21875l17.300782-17.441406c1.78125-1.796876 2.539062-4.367188 2.015624-6.839844l-15.546874-73.273438c4.570312-.613281 9.078124-1.65625 13.484374-3.125 2.324219 1.683594 4.90625 3.015625 7.632813 3.925782l7.210937 2.433593c4.453126 1.5 9.105469 2.261719 13.824219 2.261719h106.523438c-1.695313 11.054688-11.277344 19.546875-22.804688 19.546875zm57.273438 175.027344-35.570313-11.449219c-1.910156-.613281-3.988281-.4375-5.769531.492188l-12.070313 6.300781v-4.789063c0-7.53125 6.113282-13.660156 13.628907-13.660156h26.152343c7.515626 0 13.628907 6.128906 13.628907 13.660156zm-16.703125 66.570312v4.914063c0 3.570312.664062 7.046875 1.914062 10.289062-4.003906.945313-8.089844 1.480469-12.214844 1.570313-3.992187.082031-7.964843-.25-11.878906-.96875 1.417969-3.425781 2.179688-7.125 2.179688-10.890625v-4.914063c3.203125 1.351563 6.597656 2.035157 10 2.035157 3.398437 0 6.796875-.683594 10-2.035157zm-10.554688 86.199219-7.574218-8.445312 7.664062-27.09375 8.429688 26.949218zm22.054688-110.4375-15.871094 9.675781c-3.472656 2.117188-7.789062 2.117188-11.261719 0l-15.867187-9.675781c-3.214844-1.957031-5.207032-5.515625-5.207032-9.28125v-20.785156l16.230469-8.476563 37.179688 11.96875v17.292969c0 3.769531-1.992188 7.324219-5.203125 9.28125zm147.96875-42.332031-35.570313-11.449219c-1.914062-.613281-3.992187-.4375-5.769531.492188l-12.070312 6.300781v-4.789063c0-7.53125 6.113281-13.660156 13.628906-13.660156h26.152344c7.515624 0 13.628906 6.128906 13.628906 13.660156zm-16.699219 66.566406v4.917969c0 3.570312.664063 7.050781 1.910156 10.289062-4.007812.945313-8.089843 1.480469-12.21875 1.570313-4.003906.085937-7.972656-.25-11.878906-.96875 1.414063-3.425781 2.175781-7.125 2.175781-10.890625v-4.914063c3.207032 1.351563 6.605469 2.035157 10.003906 2.035157 3.402344 0 6.804688-.683594 10.007813-2.039063zm-10.558594 86.203125-7.578125-8.445312 7.664063-27.09375 8.433593 26.949218zm22.050781-110.4375-15.867187 9.675781c-3.472656 2.117188-7.789063 2.117188-11.261719 0l-15.871094-9.675781c-3.210937-1.957031-5.203124-5.511719-5.203124-9.28125v-20.785156l16.230468-8.472656 37.179688 11.964843v17.292969c0 3.769531-1.992188 7.324219-5.207032 9.28125zm0 0"/><path d="m188.558594 213.949219h256.011718c4.140626 0 7.5-3.359375 7.5-7.5 0-4.144531-3.359374-7.5-7.5-7.5h-256.011718c-4.140625 0-7.5 3.355469-7.5 7.5 0 4.140625 3.359375 7.5 7.5 7.5zm0 0"/><path d="m188.558594 248.199219h135.597656c4.140625 0 7.5-3.355469 7.5-7.5 0-4.140625-3.359375-7.5-7.5-7.5h-135.597656c-4.140625 0-7.5 3.359375-7.5 7.5 0 4.144531 3.359375 7.5 7.5 7.5zm0 0"/></svg>